<?xml version="1.0" encoding="UTF-8"?>
<svg xmlns="http://www.w3.org/2000/svg" xmlns:xlink="http://www.w3.org/1999/xlink" width="179px" height="31px" viewBox="0 0 179 31" version="1.1">
<defs>
<clipPath id="clip1">
  <path d="M 21 0 L 58 0 L 58 31 L 21 31 Z M 21 0 "/>
</clipPath>
<clipPath id="clip2">
  <path d="M 21.386719 0.929688 L 21.386719 9.484375 C 21.386719 12.523438 23.855469 15.003906 26.878906 15.003906 L 37.4375 15.003906 C 41.199219 15.003906 44.285156 18.105469 44.285156 21.949219 L 44.285156 30.007812 C 51.632812 28.769531 57.25 22.753906 57.25 15.625 C 57.25 7.5625 50.210938 0.992188 41.570312 0.992188 L 21.386719 0.992188 Z M 21.386719 0.929688 "/>
</clipPath>
<linearGradient id="linear0" gradientUnits="userSpaceOnUse" x1="-429.389709" y1="306.70459" x2="-427.699585" y2="306.70459" gradientTransform="matrix(4.824297,20.989728,20.896337,-4.845858,-4302.221182,10496.727148)">
<stop offset="0" style="stop-color:rgb(93.72549%,27.45098%,24.705882%);stop-opacity:1;"/>
<stop offset="0.3293" style="stop-color:rgb(90.196078%,24.313725%,23.921569%);stop-opacity:1;"/>
<stop offset="0.478" style="stop-color:rgb(87.843137%,22.352941%,23.137255%);stop-opacity:1;"/>
<stop offset="0.9699" style="stop-color:rgb(77.647059%,7.843137%,19.215686%);stop-opacity:1;"/>
<stop offset="1" style="stop-color:rgb(76.862745%,7.058824%,18.823529%);stop-opacity:1;"/>
</linearGradient>
<clipPath id="clip3">
  <path d="M 1 1 L 39 1 L 39 31 L 1 31 Z M 1 1 "/>
</clipPath>
<clipPath id="clip4">
  <path d="M 1.140625 15.6875 C 1.140625 23.746094 8.179688 30.316406 16.820312 30.316406 L 38.792969 30.316406 L 38.792969 21.699219 C 38.792969 18.660156 36.324219 16.183594 33.300781 16.183594 L 22.746094 16.183594 C 18.980469 16.183594 15.894531 13.144531 15.894531 9.300781 L 15.894531 1.054688 C 7.683594 1.488281 1.140625 7.9375 1.140625 15.6875 "/>
</clipPath>
<linearGradient id="linear1" gradientUnits="userSpaceOnUse" x1="-427.872406" y1="300.51239" x2="-426.181488" y2="300.51239" gradientTransform="matrix(0,17.295086,17.218133,0,-5154.320796,7401.149492)">
<stop offset="0" style="stop-color:rgb(0%,71.372549%,94.509804%);stop-opacity:1;"/>
<stop offset="0.0500031" style="stop-color:rgb(0%,71.372549%,94.509804%);stop-opacity:1;"/>
<stop offset="0.0688655" style="stop-color:rgb(0%,69.411765%,92.156863%);stop-opacity:1;"/>
<stop offset="0.1996" style="stop-color:rgb(0%,56.470588%,77.647059%);stop-opacity:1;"/>
<stop offset="0.3365" style="stop-color:rgb(0%,46.27451%,65.490196%);stop-opacity:1;"/>
<stop offset="0.4791" style="stop-color:rgb(0%,38.039216%,56.078431%);stop-opacity:1;"/>
<stop offset="0.6301" style="stop-color:rgb(0%,32.156863%,49.411765%);stop-opacity:1;"/>
<stop offset="0.7951" style="stop-color:rgb(0%,29.019608%,45.490196%);stop-opacity:1;"/>
<stop offset="1" style="stop-color:rgb(0%,27.843137%,44.313725%);stop-opacity:1;"/>
</linearGradient>
<filter id="alpha" filterUnits="objectBoundingBox" x="0%" y="0%" width="100%" height="100%">
  <feColorMatrix type="matrix" in="SourceGraphic" values="0 0 0 0 1 0 0 0 0 1 0 0 0 0 1 0 0 0 1 0"/>
</filter>
<mask id="mask0">
  <g filter="url(#alpha)">
<rect x="0" y="0" width="179" height="31" style="fill:rgb(0%,0%,0%);fill-opacity:0.8;stroke:none;"/>
  </g>
</mask>
<clipPath id="clip6">
  <path d="M 21 8 L 45 8 L 45 22 L 21 22 Z M 21 8 "/>
</clipPath>
<clipPath id="clip7">
  <path d="M 21.386719 8.929688 L 21.386719 9.425781 C 21.386719 12.460938 23.855469 14.941406 26.878906 14.941406 L 37.4375 14.941406 C 41.199219 14.941406 44.285156 18.042969 44.285156 21.886719 L 44.285156 21.390625 C 44.285156 17.609375 41.199219 14.445312 37.4375 14.445312 L 26.941406 14.445312 C 23.917969 14.445312 21.386719 12.027344 21.386719 8.929688 "/>
</clipPath>
<linearGradient id="linear2" gradientUnits="userSpaceOnUse" x1="-438.753906" y1="293.705505" x2="-437.062592" y2="293.705505" gradientTransform="matrix(2.355146,10.24674,10.201149,-2.365672,-1931.919801,5197.364336)">
<stop offset="0" style="stop-color:rgb(100%,100%,100%);stop-opacity:1;"/>
<stop offset="0.0358721" style="stop-color:rgb(99.215686%,96.470588%,96.862745%);stop-opacity:1;"/>
<stop offset="0.0956222" style="stop-color:rgb(96.470588%,86.27451%,87.843137%);stop-opacity:1;"/>
<stop offset="0.1719" style="stop-color:rgb(92.54902%,69.803922%,73.72549%);stop-opacity:1;"/>
<stop offset="0.2617" style="stop-color:rgb(87.058824%,47.45098%,54.117647%);stop-opacity:1;"/>
<stop offset="0.3617" style="stop-color:rgb(79.607843%,18.823529%,29.019608%);stop-opacity:1;"/>
<stop offset="0.4" style="stop-color:rgb(76.862745%,7.058824%,18.823529%);stop-opacity:1;"/>
<stop offset="1" style="stop-color:rgb(76.862745%,7.058824%,18.823529%);stop-opacity:1;"/>
</linearGradient>
<clipPath id="clip5">
  <rect x="0" y="0" width="179" height="31"/>
</clipPath>
<g id="surface5" clip-path="url(#clip5)">
<g clip-path="url(#clip6)" clip-rule="nonzero">
<g clip-path="url(#clip7)" clip-rule="nonzero">
<path style=" stroke:none;fill-rule:nonzero;fill:url(#linear2);" d="M 43.175781 3.90625 L 47.1875 21.203125 L 22.558594 26.96875 L 18.609375 9.609375 Z M 43.175781 3.90625 "/>
</g>
</g>
</g>
<clipPath id="clip8">
  <path d="M 44 15 L 58 15 L 58 30 L 44 30 Z M 44 15 "/>
</clipPath>
<clipPath id="clip9">
  <path d="M 57.3125 15.3125 C 57.1875 22.382812 51.632812 28.273438 44.347656 29.449219 L 44.347656 29.945312 C 51.695312 28.707031 57.3125 22.691406 57.3125 15.5625 C 57.3125 15.4375 57.3125 15.375 57.3125 15.3125 "/>
</clipPath>
<linearGradient id="linear3" gradientUnits="userSpaceOnUse" x1="-458.711395" y1="335.618988" x2="-457.020386" y2="335.618988" gradientTransform="matrix(7.652806,0,0,-7.687008,3554.778754,2602.531133)">
<stop offset="0" style="stop-color:rgb(76.862745%,7.058824%,18.823529%);stop-opacity:1;"/>
<stop offset="0.1044" style="stop-color:rgb(76.862745%,7.058824%,18.823529%);stop-opacity:1;"/>
<stop offset="0.38" style="stop-color:rgb(76.862745%,7.058824%,18.823529%);stop-opacity:1;"/>
<stop offset="0.5689" style="stop-color:rgb(77.254902%,7.843137%,19.607843%);stop-opacity:1;"/>
<stop offset="0.6558" style="stop-color:rgb(77.647059%,10.980392%,21.960784%);stop-opacity:1;"/>
<stop offset="0.7218" style="stop-color:rgb(79.215686%,15.686275%,26.666667%);stop-opacity:1;"/>
<stop offset="0.7772" style="stop-color:rgb(80.784314%,23.137255%,32.54902%);stop-opacity:1;"/>
<stop offset="0.8261" style="stop-color:rgb(83.137255%,32.156863%,40.784314%);stop-opacity:1;"/>
<stop offset="0.8702" style="stop-color:rgb(85.882353%,43.529412%,50.980392%);stop-opacity:1;"/>
<stop offset="0.9109" style="stop-color:rgb(89.411765%,57.254902%,62.745098%);stop-opacity:1;"/>
<stop offset="0.9489" style="stop-color:rgb(93.333333%,73.333333%,76.470588%);stop-opacity:1;"/>
<stop offset="0.9833" style="stop-color:rgb(97.647059%,90.588235%,91.764706%);stop-opacity:1;"/>
<stop offset="1" style="stop-color:rgb(100%,100%,100%);stop-opacity:1;"/>
</linearGradient>
<clipPath id="clip10">
  <path d="M 1 1 L 16 1 L 16 16 L 1 16 Z M 1 1 "/>
</clipPath>
<clipPath id="clip11">
  <path d="M 15.832031 1.054688 C 9.660156 1.425781 4.476562 5.085938 2.253906 10.230469 C 1.511719 11.902344 1.140625 13.765625 1.140625 15.6875 C 1.140625 15.746094 1.140625 15.871094 1.140625 15.933594 C 1.265625 8.246094 7.746094 1.984375 15.832031 1.550781 Z M 15.832031 1.054688 "/>
</clipPath>
<mask id="mask1">
  <g filter="url(#alpha)">
<rect x="0" y="0" width="179" height="31" style="fill:rgb(0%,0%,0%);fill-opacity:0.8;stroke:none;"/>
  </g>
</mask>
<clipPath id="clip13">
  <path d="M 15 9 L 39 9 L 39 23 L 15 23 Z M 15 9 "/>
</clipPath>
<clipPath id="clip14">
  <path d="M 15.832031 9.425781 L 15.832031 9.796875 C 15.832031 13.578125 18.917969 16.679688 22.683594 16.679688 L 33.238281 16.679688 C 36.203125 16.679688 38.671875 19.097656 38.730469 22.132812 L 38.730469 21.699219 C 38.730469 18.660156 36.261719 16.183594 33.238281 16.183594 L 22.746094 16.183594 C 18.980469 16.183594 15.894531 13.144531 15.832031 9.425781 "/>
</clipPath>
<linearGradient id="linear4" gradientUnits="userSpaceOnUse" x1="-442.797089" y1="328.493805" x2="-441.106293" y2="328.493805" gradientTransform="matrix(13.549435,0,0,-13.609991,6015.515491,4486.544629)">
<stop offset="0" style="stop-color:rgb(0%,27.843137%,44.313725%);stop-opacity:1;"/>
<stop offset="0.1431" style="stop-color:rgb(1.568627%,29.019608%,45.098039%);stop-opacity:1;"/>
<stop offset="0.271" style="stop-color:rgb(5.490196%,31.764706%,47.45098%);stop-opacity:1;"/>
<stop offset="0.3932" style="stop-color:rgb(12.941176%,37.254902%,51.372549%);stop-opacity:1;"/>
<stop offset="0.5118" style="stop-color:rgb(22.745098%,44.313725%,57.254902%);stop-opacity:1;"/>
<stop offset="0.6279" style="stop-color:rgb(36.078431%,53.72549%,64.313725%);stop-opacity:1;"/>
<stop offset="0.742" style="stop-color:rgb(51.764706%,65.098039%,73.333333%);stop-opacity:1;"/>
<stop offset="0.8546" style="stop-color:rgb(70.588235%,78.823529%,83.921569%);stop-opacity:1;"/>
<stop offset="0.9633" style="stop-color:rgb(92.156863%,94.117647%,95.686275%);stop-opacity:1;"/>
<stop offset="1" style="stop-color:rgb(100%,100%,100%);stop-opacity:1;"/>
</linearGradient>
<clipPath id="clip12">
  <rect x="0" y="0" width="179" height="31"/>
</clipPath>
<g id="surface8" clip-path="url(#clip12)">
<g clip-path="url(#clip13)" clip-rule="nonzero">
<g clip-path="url(#clip14)" clip-rule="nonzero">
<path style=" stroke:none;fill-rule:nonzero;fill:url(#linear4);" d="M 15.832031 9.425781 L 38.730469 9.425781 L 38.730469 22.070312 L 15.832031 22.070312 Z M 15.832031 9.425781 "/>
</g>
</g>
</g>
</defs>
<g id="surface1">
<path style=" stroke:none;fill-rule:nonzero;fill:rgb(20%,20%,20.392157%);fill-opacity:1;" d="M 75.828125 28.335938 C 75.828125 27.652344 75.273438 27.03125 74.46875 26.90625 L 72.1875 26.90625 L 72.1875 29.699219 L 74.222656 29.699219 C 75.148438 29.699219 75.828125 29.078125 75.828125 28.335938 M 72.1875 26.410156 L 74.222656 26.410156 C 74.964844 26.410156 75.519531 25.855469 75.519531 25.234375 C 75.519531 24.550781 74.964844 24.117188 74.222656 24.117188 L 72.1875 24.117188 Z M 77.679688 28.335938 C 77.679688 29.386719 76.570312 30.257812 75.085938 30.257812 L 70.335938 30.257812 L 70.335938 23.683594 L 74.964844 23.683594 C 76.261719 23.683594 77.1875 24.304688 77.1875 25.234375 C 77.1875 25.792969 76.816406 26.289062 76.199219 26.660156 C 77.0625 26.90625 77.679688 27.589844 77.679688 28.335938 M 97.617188 30.257812 L 99.46875 30.257812 L 99.46875 23.683594 L 97.617188 23.683594 Z M 104.40625 23.683594 L 103.234375 23.683594 L 99.53125 26.96875 C 99.53125 26.96875 101.257812 28.953125 101.9375 29.636719 C 102.492188 30.195312 102.988281 30.257812 103.664062 30.257812 L 104.652344 30.257812 L 101.195312 26.535156 Z M 94.714844 27.839844 L 89.902344 23.683594 L 87.863281 23.683594 L 87.863281 30.257812 L 88.726562 30.257812 L 88.726562 25.171875 L 94.59375 30.257812 L 95.640625 30.257812 L 95.640625 23.683594 L 94.777344 23.683594 L 94.777344 27.839844 Z M 83.359375 28.085938 L 81.878906 25.730469 L 80.394531 28.085938 Z M 82.371094 23.558594 L 86.628906 30.257812 L 84.65625 30.257812 L 83.605469 28.519531 L 80.148438 28.519531 L 79.097656 30.257812 L 78.234375 30.257812 Z M 177.609375 15.191406 C 177.054688 15.996094 176.191406 16.679688 175.203125 17.175781 C 174.523438 17.546875 173.847656 17.792969 173.042969 17.917969 C 172.488281 18.042969 171.871094 18.105469 171.316406 18.105469 C 170.945312 18.105469 170.574219 18.105469 170.265625 18.042969 C 166.933594 17.730469 164.894531 15.746094 164.894531 12.339844 C 164.894531 8.492188 167.425781 6.199219 171.4375 6.199219 C 173.289062 6.199219 175.019531 6.695312 176.375 7.996094 C 176.375 7.996094 176.625 8.246094 176.992188 8.371094 C 177.179688 8.433594 177.363281 8.433594 177.609375 8.371094 C 177.796875 8.308594 178.042969 8.183594 178.289062 7.9375 C 178.289062 7.9375 178.226562 7.8125 178.105469 7.75 C 178.042969 7.6875 177.917969 7.5625 177.859375 7.503906 L 177.671875 7.378906 C 175.757812 5.640625 173.230469 5.144531 170.699219 5.144531 C 165.203125 5.144531 160.761719 8.121094 160.761719 12.277344 C 160.761719 16.617188 165.203125 19.40625 170.511719 19.40625 C 173.660156 19.40625 176.933594 18.539062 178.90625 15.746094 Z M 85.949219 15.6875 L 84.65625 15.128906 C 84.097656 15.933594 83.234375 16.617188 82.246094 17.113281 C 81.570312 17.484375 80.890625 17.730469 80.085938 17.855469 C 79.53125 17.980469 78.914062 18.042969 78.359375 18.042969 C 77.988281 18.042969 77.617188 18.042969 77.308594 17.980469 C 73.976562 17.671875 71.941406 15.6875 71.941406 12.277344 C 71.941406 8.433594 74.46875 6.136719 78.480469 6.136719 C 80.332031 6.136719 82.0625 6.632812 83.421875 7.9375 C 83.421875 7.9375 83.667969 8.183594 84.039062 8.308594 C 84.222656 8.371094 84.40625 8.371094 84.65625 8.308594 C 84.839844 8.246094 85.085938 8.121094 85.332031 7.875 C 85.332031 7.875 85.273438 7.75 85.148438 7.6875 C 85.085938 7.625 84.964844 7.503906 84.902344 7.441406 L 84.714844 7.316406 C 82.804688 5.578125 80.273438 5.085938 77.742188 5.085938 C 72.25 5.085938 67.804688 8.058594 67.804688 12.214844 C 67.804688 16.554688 72.25 19.34375 77.554688 19.34375 C 80.703125 19.34375 84.039062 18.539062 85.949219 15.6875 M 115.023438 5.332031 L 106.011719 5.332031 L 106.011719 19.097656 L 109.960938 19.097656 L 109.960938 6.570312 L 113.234375 6.570312 C 115.023438 6.570312 116.503906 7.875 116.503906 9.484375 C 116.503906 11.097656 115.023438 12.398438 113.234375 12.398438 L 111.195312 12.398438 C 110.886719 12.398438 110.578125 12.648438 110.578125 13.019531 L 110.578125 13.640625 L 115.085938 13.640625 C 118.171875 13.640625 120.394531 11.71875 120.394531 9.484375 C 120.332031 7.191406 118.109375 5.332031 115.023438 5.332031 M 146.625 19.097656 L 158.539062 19.097656 L 158.539062 17.917969 L 150.574219 17.917969 L 150.574219 12.339844 L 157.984375 12.339844 L 157.984375 11.160156 L 150.574219 11.160156 L 150.574219 6.511719 L 158.539062 6.511719 L 158.539062 5.332031 L 146.625 5.332031 Z M 103.664062 19.097656 L 94.902344 4.960938 L 86.445312 19.097656 L 88.480469 19.097656 L 93.914062 9.734375 L 96.136719 13.578125 L 92.554688 13.578125 C 92.371094 13.578125 92.183594 13.703125 92.0625 13.824219 L 91.566406 14.757812 L 96.875 14.757812 L 99.40625 19.097656 Z M 129.652344 5.332031 L 129.652344 6.570312 L 134.898438 6.570312 L 134.898438 19.15625 L 138.785156 19.15625 L 138.785156 6.570312 L 144.035156 6.570312 L 144.035156 5.332031 Z M 123.171875 5.332031 L 127.121094 5.332031 L 127.121094 19.097656 L 123.171875 19.097656 Z M 123.171875 5.332031 "/>
<g clip-path="url(#clip1)" clip-rule="nonzero">
<g clip-path="url(#clip2)" clip-rule="nonzero">
<path style=" stroke:none;fill-rule:nonzero;fill:url(#linear0);" d="M 55.460938 -7.007812 L 63.667969 28.457031 L 23.238281 37.882812 L 15.089844 2.355469 Z M 55.460938 -7.007812 "/>
</g>
</g>
<g clip-path="url(#clip3)" clip-rule="nonzero">
<g clip-path="url(#clip4)" clip-rule="nonzero">
<path style=" stroke:none;fill-rule:nonzero;fill:url(#linear1);" d="M 1.140625 1.054688 L 38.792969 1.054688 L 38.792969 30.316406 L 1.140625 30.316406 Z M 1.140625 1.054688 "/>
</g>
</g>
<use xlink:href="#surface5" mask="url(#mask0)"/>
<g clip-path="url(#clip8)" clip-rule="nonzero">
<g clip-path="url(#clip9)" clip-rule="nonzero">
<path style=" stroke:none;fill-rule:nonzero;fill:url(#linear3);" d="M 44.347656 15.3125 L 57.3125 15.3125 L 57.3125 29.945312 L 44.347656 29.945312 Z M 44.347656 15.3125 "/>
</g>
</g>
<path style=" stroke:none;fill-rule:nonzero;fill:rgb(0%,0%,0%);fill-opacity:1;" d="M 15.832031 1.054688 C 9.660156 1.425781 4.476562 5.085938 2.253906 10.230469 C 4.476562 5.085938 9.722656 1.425781 15.832031 1.054688 L 15.832031 1.550781 Z M 15.832031 1.054688 "/>
<g clip-path="url(#clip10)" clip-rule="nonzero">
<g clip-path="url(#clip11)" clip-rule="nonzero">
<path style=" stroke:none;fill-rule:nonzero;fill:rgb(100%,100%,100%);fill-opacity:1;" d="M 1.140625 1.054688 L 15.832031 1.054688 L 15.832031 15.871094 L 1.140625 15.871094 Z M 1.140625 1.054688 "/>
</g>
</g>
<path style=" stroke:none;fill-rule:nonzero;fill:rgb(0%,0%,0%);fill-opacity:1;" d="M 15.832031 9.300781 L 15.832031 9.425781 C 15.894531 13.207031 18.980469 16.183594 22.683594 16.183594 L 33.238281 16.183594 C 36.261719 16.183594 38.730469 18.660156 38.730469 21.699219 L 38.730469 22.070312 C 38.730469 22.132812 38.730469 22.132812 38.730469 22.195312 L 38.730469 21.699219 C 38.730469 18.660156 36.261719 16.183594 33.238281 16.183594 L 22.746094 16.183594 C 18.917969 16.183594 15.832031 13.082031 15.832031 9.300781 "/>
<use xlink:href="#surface8" mask="url(#mask1)"/>
</g>
</svg>
