<?xml version="1.0" encoding="UTF-8"?>
<svg xmlns="http://www.w3.org/2000/svg" xmlns:xlink="http://www.w3.org/1999/xlink" width="133px" height="23px" viewBox="0 0 133 23" version="1.1">
<defs>
<clipPath id="clip1">
  <path d="M 15 0 L 43 0 L 43 23 L 15 23 Z M 15 0 "/>
</clipPath>
<clipPath id="clip2">
  <path d="M 15.890625 0.691406 L 15.890625 7.039062 C 15.890625 9.292969 17.726562 11.132812 19.972656 11.132812 L 27.816406 11.132812 C 30.613281 11.132812 32.90625 13.433594 32.90625 16.285156 L 32.90625 22.265625 C 38.363281 21.34375 42.535156 16.882812 42.535156 11.59375 C 42.535156 5.613281 37.308594 0.734375 30.886719 0.734375 L 15.890625 0.734375 Z M 15.890625 0.691406 "/>
</clipPath>
<linearGradient id="linear0" gradientUnits="userSpaceOnUse" x1="-429.389709" y1="306.70459" x2="-427.699585" y2="306.70459" gradientTransform="matrix(3.584533,15.573024,15.526329,-3.595314,-3196.622443,7787.894336)">
<stop offset="0" style="stop-color:rgb(93.72549%,27.45098%,24.705882%);stop-opacity:1;"/>
<stop offset="0.3293" style="stop-color:rgb(90.196078%,24.313725%,23.921569%);stop-opacity:1;"/>
<stop offset="0.478" style="stop-color:rgb(87.843137%,22.352941%,23.137255%);stop-opacity:1;"/>
<stop offset="0.9699" style="stop-color:rgb(77.647059%,7.843137%,19.215686%);stop-opacity:1;"/>
<stop offset="1" style="stop-color:rgb(76.862745%,7.058824%,18.823529%);stop-opacity:1;"/>
</linearGradient>
<clipPath id="clip3">
  <path d="M 0 0 L 29 0 L 29 23 L 0 23 Z M 0 0 "/>
</clipPath>
<clipPath id="clip4">
  <path d="M 0.847656 11.636719 C 0.847656 17.617188 6.078125 22.492188 12.496094 22.492188 L 28.824219 22.492188 L 28.824219 16.101562 C 28.824219 13.847656 26.988281 12.007812 24.742188 12.007812 L 16.898438 12.007812 C 14.101562 12.007812 11.808594 9.753906 11.808594 6.898438 L 11.808594 0.78125 C 5.710938 1.105469 0.847656 5.886719 0.847656 11.636719 "/>
</clipPath>
<linearGradient id="linear1" gradientUnits="userSpaceOnUse" x1="-427.872406" y1="300.51239" x2="-426.181488" y2="300.51239" gradientTransform="matrix(0,12.831838,12.793362,0,-3829.746737,5491.17543)">
<stop offset="0" style="stop-color:rgb(0%,71.372549%,94.509804%);stop-opacity:1;"/>
<stop offset="0.0500031" style="stop-color:rgb(0%,71.372549%,94.509804%);stop-opacity:1;"/>
<stop offset="0.0688655" style="stop-color:rgb(0%,69.411765%,92.156863%);stop-opacity:1;"/>
<stop offset="0.1996" style="stop-color:rgb(0%,56.470588%,77.647059%);stop-opacity:1;"/>
<stop offset="0.3365" style="stop-color:rgb(0%,46.27451%,65.490196%);stop-opacity:1;"/>
<stop offset="0.4791" style="stop-color:rgb(0%,38.039216%,56.078431%);stop-opacity:1;"/>
<stop offset="0.6301" style="stop-color:rgb(0%,32.156863%,49.411765%);stop-opacity:1;"/>
<stop offset="0.7951" style="stop-color:rgb(0%,29.019608%,45.490196%);stop-opacity:1;"/>
<stop offset="1" style="stop-color:rgb(0%,27.843137%,44.313725%);stop-opacity:1;"/>
</linearGradient>
<filter id="alpha" filterUnits="objectBoundingBox" x="0%" y="0%" width="100%" height="100%">
  <feColorMatrix type="matrix" in="SourceGraphic" values="0 0 0 0 1 0 0 0 0 1 0 0 0 0 1 0 0 0 1 0"/>
</filter>
<mask id="mask0">
  <g filter="url(#alpha)">
<rect x="0" y="0" width="133" height="23" style="fill:rgb(0%,0%,0%);fill-opacity:0.8;stroke:none;"/>
  </g>
</mask>
<clipPath id="clip6">
  <path d="M 15.15625 6 L 33 6 L 33 17 L 15.15625 17 Z M 15.15625 6 "/>
</clipPath>
<clipPath id="clip7">
  <path d="M 15.890625 6.625 L 15.890625 6.992188 C 15.890625 9.246094 17.726562 11.085938 19.972656 11.085938 L 27.816406 11.085938 C 30.613281 11.085938 32.90625 13.386719 32.90625 16.238281 L 32.90625 15.871094 C 32.90625 13.0625 30.613281 10.71875 27.816406 10.71875 L 20.019531 10.71875 C 17.773438 10.71875 15.890625 8.925781 15.890625 6.625 "/>
</clipPath>
<linearGradient id="linear2" gradientUnits="userSpaceOnUse" x1="-438.753906" y1="293.705505" x2="-437.062592" y2="293.705505" gradientTransform="matrix(1.749913,7.60242,7.579624,-1.755176,-1435.44879,3856.109023)">
<stop offset="0" style="stop-color:rgb(100%,100%,100%);stop-opacity:1;"/>
<stop offset="0.0358721" style="stop-color:rgb(99.215686%,96.470588%,96.862745%);stop-opacity:1;"/>
<stop offset="0.0956222" style="stop-color:rgb(96.470588%,86.27451%,87.843137%);stop-opacity:1;"/>
<stop offset="0.1719" style="stop-color:rgb(92.54902%,69.803922%,73.72549%);stop-opacity:1;"/>
<stop offset="0.2617" style="stop-color:rgb(87.058824%,47.45098%,54.117647%);stop-opacity:1;"/>
<stop offset="0.3617" style="stop-color:rgb(79.607843%,18.823529%,29.019608%);stop-opacity:1;"/>
<stop offset="0.4" style="stop-color:rgb(76.862745%,7.058824%,18.823529%);stop-opacity:1;"/>
<stop offset="1" style="stop-color:rgb(76.862745%,7.058824%,18.823529%);stop-opacity:1;"/>
</linearGradient>
<clipPath id="clip5">
  <rect x="0" y="0" width="133" height="23"/>
</clipPath>
<g id="surface5" clip-path="url(#clip5)">
<g clip-path="url(#clip6)" clip-rule="nonzero">
<g clip-path="url(#clip7)" clip-rule="nonzero">
<path style=" stroke:none;fill-rule:nonzero;fill:url(#linear2);" d="M 32.082031 2.898438 L 35.0625 15.730469 L 16.761719 20.011719 L 13.828125 7.128906 Z M 32.082031 2.898438 "/>
</g>
</g>
</g>
<clipPath id="clip8">
  <path d="M 32.171875 11 L 43 11 L 43 23 L 32.171875 23 Z M 32.171875 11 "/>
</clipPath>
<clipPath id="clip9">
  <path d="M 42.582031 11.363281 C 42.492188 16.605469 38.363281 20.976562 32.953125 21.851562 L 32.953125 22.21875 C 38.410156 21.296875 42.582031 16.835938 42.582031 11.546875 C 42.582031 11.453125 42.582031 11.40625 42.582031 11.363281 "/>
</clipPath>
<linearGradient id="linear3" gradientUnits="userSpaceOnUse" x1="-458.711395" y1="335.618988" x2="-457.020386" y2="335.618988" gradientTransform="matrix(5.686163,0,0,-5.703264,2641.260192,1930.910195)">
<stop offset="0" style="stop-color:rgb(76.862745%,7.058824%,18.823529%);stop-opacity:1;"/>
<stop offset="0.1044" style="stop-color:rgb(76.862745%,7.058824%,18.823529%);stop-opacity:1;"/>
<stop offset="0.38" style="stop-color:rgb(76.862745%,7.058824%,18.823529%);stop-opacity:1;"/>
<stop offset="0.5689" style="stop-color:rgb(77.254902%,7.843137%,19.607843%);stop-opacity:1;"/>
<stop offset="0.6558" style="stop-color:rgb(77.647059%,10.980392%,21.960784%);stop-opacity:1;"/>
<stop offset="0.7218" style="stop-color:rgb(79.215686%,15.686275%,26.666667%);stop-opacity:1;"/>
<stop offset="0.7772" style="stop-color:rgb(80.784314%,23.137255%,32.54902%);stop-opacity:1;"/>
<stop offset="0.8261" style="stop-color:rgb(83.137255%,32.156863%,40.784314%);stop-opacity:1;"/>
<stop offset="0.8702" style="stop-color:rgb(85.882353%,43.529412%,50.980392%);stop-opacity:1;"/>
<stop offset="0.9109" style="stop-color:rgb(89.411765%,57.254902%,62.745098%);stop-opacity:1;"/>
<stop offset="0.9489" style="stop-color:rgb(93.333333%,73.333333%,76.470588%);stop-opacity:1;"/>
<stop offset="0.9833" style="stop-color:rgb(97.647059%,90.588235%,91.764706%);stop-opacity:1;"/>
<stop offset="1" style="stop-color:rgb(100%,100%,100%);stop-opacity:1;"/>
</linearGradient>
<clipPath id="clip10">
  <path d="M 0.0703125 0 L 12 0 L 12 12 L 0.0703125 12 Z M 0.0703125 0 "/>
</clipPath>
<clipPath id="clip11">
  <path d="M 11.761719 0.78125 C 7.175781 1.058594 3.324219 3.773438 1.675781 7.589844 C 1.125 8.832031 0.847656 10.210938 0.847656 11.636719 C 0.847656 11.683594 0.847656 11.777344 0.847656 11.820312 C 0.941406 6.117188 5.753906 1.472656 11.761719 1.148438 Z M 11.761719 0.78125 "/>
</clipPath>
<mask id="mask1">
  <g filter="url(#alpha)">
<rect x="0" y="0" width="133" height="23" style="fill:rgb(0%,0%,0%);fill-opacity:0.8;stroke:none;"/>
  </g>
</mask>
<clipPath id="clip13">
  <path d="M 11 6.210938 L 29 6.210938 L 29 17 L 11 17 Z M 11 6.210938 "/>
</clipPath>
<clipPath id="clip14">
  <path d="M 11.761719 6.992188 L 11.761719 7.269531 C 11.761719 10.074219 14.058594 12.375 16.855469 12.375 L 24.695312 12.375 C 26.898438 12.375 28.734375 14.167969 28.777344 16.421875 L 28.777344 16.101562 C 28.777344 13.847656 26.945312 12.007812 24.695312 12.007812 L 16.898438 12.007812 C 14.101562 12.007812 11.808594 9.753906 11.761719 6.992188 "/>
</clipPath>
<linearGradient id="linear4" gradientUnits="userSpaceOnUse" x1="-442.797089" y1="328.493805" x2="-441.106293" y2="328.493805" gradientTransform="matrix(10.067458,0,0,-10.097736,4469.628829,3328.72666)">
<stop offset="0" style="stop-color:rgb(0%,27.843137%,44.313725%);stop-opacity:1;"/>
<stop offset="0.1431" style="stop-color:rgb(1.568627%,29.019608%,45.098039%);stop-opacity:1;"/>
<stop offset="0.271" style="stop-color:rgb(5.490196%,31.764706%,47.45098%);stop-opacity:1;"/>
<stop offset="0.3932" style="stop-color:rgb(12.941176%,37.254902%,51.372549%);stop-opacity:1;"/>
<stop offset="0.5118" style="stop-color:rgb(22.745098%,44.313725%,57.254902%);stop-opacity:1;"/>
<stop offset="0.6279" style="stop-color:rgb(36.078431%,53.72549%,64.313725%);stop-opacity:1;"/>
<stop offset="0.742" style="stop-color:rgb(51.764706%,65.098039%,73.333333%);stop-opacity:1;"/>
<stop offset="0.8546" style="stop-color:rgb(70.588235%,78.823529%,83.921569%);stop-opacity:1;"/>
<stop offset="0.9633" style="stop-color:rgb(92.156863%,94.117647%,95.686275%);stop-opacity:1;"/>
<stop offset="1" style="stop-color:rgb(100%,100%,100%);stop-opacity:1;"/>
</linearGradient>
<clipPath id="clip12">
  <rect x="0" y="0" width="133" height="23"/>
</clipPath>
<g id="surface8" clip-path="url(#clip12)">
<g clip-path="url(#clip13)" clip-rule="nonzero">
<g clip-path="url(#clip14)" clip-rule="nonzero">
<path style=" stroke:none;fill-rule:nonzero;fill:url(#linear4);" d="M 11.761719 6.992188 L 28.777344 6.992188 L 28.777344 16.375 L 11.761719 16.375 Z M 11.761719 6.992188 "/>
</g>
</g>
</g>
</defs>
<g id="surface1">
<path style=" stroke:none;fill-rule:nonzero;fill:rgb(20%,20%,20.392157%);fill-opacity:1;" d="M 56.339844 21.023438 C 56.339844 20.515625 55.929688 20.054688 55.332031 19.964844 L 53.636719 19.964844 L 53.636719 22.035156 L 55.148438 22.035156 C 55.835938 22.035156 56.339844 21.574219 56.339844 21.023438 M 53.636719 19.597656 L 55.148438 19.597656 C 55.699219 19.597656 56.113281 19.183594 56.113281 18.722656 C 56.113281 18.214844 55.699219 17.894531 55.148438 17.894531 L 53.636719 17.894531 Z M 57.71875 21.023438 C 57.71875 21.804688 56.890625 22.449219 55.792969 22.449219 L 52.261719 22.449219 L 52.261719 17.570312 L 55.699219 17.570312 C 56.664062 17.570312 57.351562 18.03125 57.351562 18.722656 C 57.351562 19.136719 57.074219 19.503906 56.617188 19.78125 C 57.257812 19.964844 57.71875 20.46875 57.71875 21.023438 M 72.53125 22.449219 L 73.90625 22.449219 L 73.90625 17.570312 L 72.53125 17.570312 Z M 77.574219 17.570312 L 76.703125 17.570312 L 73.953125 20.011719 C 73.953125 20.011719 75.238281 21.480469 75.742188 21.988281 C 76.152344 22.402344 76.519531 22.449219 77.023438 22.449219 L 77.757812 22.449219 L 75.191406 19.6875 Z M 70.375 20.652344 L 66.796875 17.570312 L 65.285156 17.570312 L 65.285156 22.449219 L 65.925781 22.449219 L 65.925781 18.675781 L 70.285156 22.449219 L 71.0625 22.449219 L 71.0625 17.570312 L 70.421875 17.570312 L 70.421875 20.652344 Z M 61.9375 20.839844 L 60.835938 19.089844 L 59.734375 20.839844 Z M 61.203125 17.480469 L 64.367188 22.449219 L 62.898438 22.449219 L 62.121094 21.160156 L 59.550781 21.160156 L 58.773438 22.449219 L 58.128906 22.449219 Z M 131.96875 11.269531 C 131.554688 11.867188 130.914062 12.375 130.179688 12.742188 C 129.675781 13.019531 129.171875 13.203125 128.574219 13.292969 C 128.160156 13.386719 127.703125 13.433594 127.289062 13.433594 C 127.015625 13.433594 126.738281 13.433594 126.511719 13.386719 C 124.035156 13.15625 122.519531 11.683594 122.519531 9.152344 C 122.519531 6.300781 124.402344 4.601562 127.382812 4.601562 C 128.757812 4.601562 130.042969 4.96875 131.050781 5.933594 C 131.050781 5.933594 131.234375 6.117188 131.507812 6.210938 C 131.648438 6.257812 131.785156 6.257812 131.96875 6.210938 C 132.105469 6.164062 132.289062 6.070312 132.472656 5.886719 C 132.472656 5.886719 132.425781 5.796875 132.335938 5.75 C 132.289062 5.703125 132.199219 5.613281 132.152344 5.566406 L 132.015625 5.472656 C 130.59375 4.1875 128.710938 3.816406 126.832031 3.816406 C 122.75 3.816406 119.449219 6.027344 119.449219 9.109375 C 119.449219 12.328125 122.75 14.398438 126.695312 14.398438 C 129.03125 14.398438 131.464844 13.753906 132.929688 11.683594 Z M 63.863281 11.636719 L 62.898438 11.222656 C 62.488281 11.820312 61.84375 12.328125 61.109375 12.695312 C 60.605469 12.972656 60.101562 13.15625 59.507812 13.246094 C 59.09375 13.339844 58.632812 13.386719 58.222656 13.386719 C 57.945312 13.386719 57.671875 13.386719 57.441406 13.339844 C 54.964844 13.109375 53.453125 11.636719 53.453125 9.109375 C 53.453125 6.257812 55.332031 4.554688 58.3125 4.554688 C 59.691406 4.554688 60.972656 4.921875 61.984375 5.886719 C 61.984375 5.886719 62.167969 6.070312 62.441406 6.164062 C 62.578125 6.210938 62.714844 6.210938 62.898438 6.164062 C 63.039062 6.117188 63.222656 6.027344 63.40625 5.84375 C 63.40625 5.84375 63.359375 5.75 63.265625 5.703125 C 63.222656 5.65625 63.128906 5.566406 63.082031 5.519531 L 62.945312 5.429688 C 61.523438 4.140625 59.644531 3.773438 57.761719 3.773438 C 53.679688 3.773438 50.378906 5.980469 50.378906 9.0625 C 50.378906 12.28125 53.679688 14.351562 57.625 14.351562 C 59.964844 14.351562 62.441406 13.753906 63.863281 11.636719 M 85.464844 3.957031 L 78.769531 3.957031 L 78.769531 14.167969 L 81.703125 14.167969 L 81.703125 4.875 L 84.132812 4.875 C 85.464844 4.875 86.566406 5.84375 86.566406 7.039062 C 86.566406 8.234375 85.464844 9.199219 84.132812 9.199219 L 82.621094 9.199219 C 82.390625 9.199219 82.160156 9.382812 82.160156 9.660156 L 82.160156 10.121094 L 85.511719 10.121094 C 87.804688 10.121094 89.453125 8.695312 89.453125 7.039062 C 89.40625 5.335938 87.757812 3.957031 85.464844 3.957031 M 108.945312 14.167969 L 117.796875 14.167969 L 117.796875 13.292969 L 111.878906 13.292969 L 111.878906 9.152344 L 117.382812 9.152344 L 117.382812 8.28125 L 111.878906 8.28125 L 111.878906 4.828125 L 117.796875 4.828125 L 117.796875 3.957031 L 108.945312 3.957031 Z M 77.023438 14.167969 L 70.511719 3.679688 L 64.230469 14.167969 L 65.742188 14.167969 L 69.777344 7.222656 L 71.429688 10.074219 L 68.769531 10.074219 C 68.632812 10.074219 68.496094 10.164062 68.402344 10.257812 L 68.035156 10.949219 L 71.980469 10.949219 L 73.859375 14.167969 Z M 96.332031 3.957031 L 96.332031 4.875 L 100.230469 4.875 L 100.230469 14.214844 L 103.121094 14.214844 L 103.121094 4.875 L 107.019531 4.875 L 107.019531 3.957031 Z M 91.519531 3.957031 L 94.453125 3.957031 L 94.453125 14.167969 L 91.519531 14.167969 Z M 91.519531 3.957031 "/>
<g clip-path="url(#clip1)" clip-rule="nonzero">
<g clip-path="url(#clip2)" clip-rule="nonzero">
<path style=" stroke:none;fill-rule:nonzero;fill:url(#linear0);" d="M 41.207031 -5.199219 L 47.308594 21.113281 L 17.265625 28.105469 L 11.214844 1.746094 Z M 41.207031 -5.199219 "/>
</g>
</g>
<g clip-path="url(#clip3)" clip-rule="nonzero">
<g clip-path="url(#clip4)" clip-rule="nonzero">
<path style=" stroke:none;fill-rule:nonzero;fill:url(#linear1);" d="M 0.847656 0.78125 L 28.824219 0.78125 L 28.824219 22.492188 L 0.847656 22.492188 Z M 0.847656 0.78125 "/>
</g>
</g>
<use xlink:href="#surface5" mask="url(#mask0)"/>
<g clip-path="url(#clip8)" clip-rule="nonzero">
<g clip-path="url(#clip9)" clip-rule="nonzero">
<path style=" stroke:none;fill-rule:nonzero;fill:url(#linear3);" d="M 32.953125 11.363281 L 42.582031 11.363281 L 42.582031 22.21875 L 32.953125 22.21875 Z M 32.953125 11.363281 "/>
</g>
</g>
<path style=" stroke:none;fill-rule:nonzero;fill:rgb(0%,0%,0%);fill-opacity:1;" d="M 11.761719 0.78125 C 7.175781 1.058594 3.324219 3.773438 1.675781 7.589844 C 3.324219 3.773438 7.222656 1.058594 11.761719 0.78125 L 11.761719 1.148438 Z M 11.761719 0.78125 "/>
<g clip-path="url(#clip10)" clip-rule="nonzero">
<g clip-path="url(#clip11)" clip-rule="nonzero">
<path style=" stroke:none;fill-rule:nonzero;fill:rgb(100%,100%,100%);fill-opacity:1;" d="M 0.847656 0.78125 L 11.761719 0.78125 L 11.761719 11.777344 L 0.847656 11.777344 Z M 0.847656 0.78125 "/>
</g>
</g>
<path style=" stroke:none;fill-rule:nonzero;fill:rgb(0%,0%,0%);fill-opacity:1;" d="M 11.761719 6.898438 L 11.761719 6.992188 C 11.808594 9.796875 14.101562 12.007812 16.855469 12.007812 L 24.695312 12.007812 C 26.945312 12.007812 28.777344 13.847656 28.777344 16.101562 L 28.777344 16.375 C 28.777344 16.421875 28.777344 16.421875 28.777344 16.46875 L 28.777344 16.101562 C 28.777344 13.847656 26.945312 12.007812 24.695312 12.007812 L 16.898438 12.007812 C 14.058594 12.007812 11.761719 9.707031 11.761719 6.898438 "/>
<use xlink:href="#surface8" mask="url(#mask1)"/>
</g>
</svg>
