<svg xmlns="http://www.w3.org/2000/svg" viewBox="0 0 348.1 86.1" xmlns:v="https://vecta.io/nano"><defs><linearGradient id="A" x1="327.6" x2="339.5" y1="49.7" y2="31.4" gradientUnits="userSpaceOnUse"><stop offset=".3" stop-color="#0c2039"/><stop offset=".3" stop-color="#0e223b"/><stop offset=".5" stop-color="#23354e"/><stop offset=".8" stop-color="#2f4059"/><stop offset="1" stop-color="#33445d"/></linearGradient></defs><path fill="#363c58" d="M250.4 42.7v-7.8h-43.5v50h9.7V65.4h29v-7.8h-29V42.7zm-64.7-7.8-22.3 29-22.8-29h-10v50h9.1V48.7l21.9 27.7h3l21.3-27.7v36.2h9.7v-50zm102.3 50V66.6l22.4-31.7h-10.3l-16.6 23.5-16.7-23.5h-12l23.5 33.2v16.8zM90.9 33.6c-18.4 0-30.6 11.8-30.6 26.2 0 14.5 12.3 26.3 30.6 26.3s30.6-11.8 30.6-26.2-12.3-26.3-30.6-26.3m0 44.6c-11.6 0-20-8-20-18.3s8.5-18.4 20-18.4 20 8 20 18.4-8.5 18.3-20 18.3M11.4 46.6c0-3.6 6-5.5 15.7-5.5a57 57 0 0 1 22 4.6l3-6.7a59 59 0 0 0-24.3-5.4C10.8 33.6 1 39.3 1 47.9c0 18.4 41.7 11 41.7 23.2 0 3-2.5 7.3-15.5 7.3a50 50 0 0 1-23-6.2l-4.2 7c2.9 2 13.8 6.9 27.2 6.9 7.5 0 26.6-2.1 26.6-16.8 0-19.7-42.4-13.7-42.4-22.7"/><path fill="url(#A)" d="M340 15a19.2 19.2 0 1 1-22.2 31.5Z"/><path fill="#db6e2b" d="M325.9 35a19.2 19.2 0 0 1 22.2-31.5Z"/></svg>